<svg xmlns="http://www.w3.org/2000/svg" viewBox="0 0 566.93 566.93"><defs><style>.cls-1{fill:#0a0a0a;}.cls-2{fill:none;}</style></defs><title>logo</title><g id="图层_2" data-name="图层 2"><g id="图层_1-2" data-name="图层 1"><path class="cls-1" d="M233.74,427.36c-12.18,14.67-28.32,21.5-50.78,21.5H130.89V229.56H183l1.27,0-17-46.43H77.32V495.28H188.86c34.42,0,62.71-10,81.84-29l-25.13-68.69C243.38,411.05,239.69,420.06,233.74,427.36ZM409,382.72h80.62V336.31H391.9ZM294.79,70.6,311.85,117H427.93L354,232.48l21.75,59.14L489.59,114.23V70.6Zm-148.87,0L301.06,495.28h53.59L199.5,70.6Zm75.48,0L376.54,495.28h53.58L275,70.6Z"/><rect class="cls-2" width="566.93" height="566.93"/></g></g></svg>